<mxfile host="app.diagrams.net" modified="2023-02-08T07:45:06.579Z" agent="5.0 (Windows NT 10.0; Win64; x64) AppleWebKit/537.36 (KHTML, like Gecko) Chrome/109.0.0.0 Safari/537.36" etag="vG8JBVi636htqpKfsEWz" version="20.8.17" type="github">
  <diagram name="Page-1" id="2YBvvXClWsGukQMizWep">
    <mxGraphModel dx="2524" dy="739" grid="1" gridSize="10" guides="1" tooltips="1" connect="1" arrows="1" fold="1" page="1" pageScale="1" pageWidth="850" pageHeight="1100" math="0" shadow="0">
      <root>
        <mxCell id="0" />
        <mxCell id="1" parent="0" />
        <mxCell id="RnU1c53OWpj6BuBvelCK-1" value="" style="shape=umlLifeline;perimeter=lifelinePerimeter;whiteSpace=wrap;html=1;container=0;dropTarget=0;collapsible=0;recursiveResize=0;outlineConnect=0;portConstraint=eastwest;newEdgeStyle={&quot;edgeStyle&quot;:&quot;elbowEdgeStyle&quot;,&quot;elbow&quot;:&quot;vertical&quot;,&quot;curved&quot;:0,&quot;rounded&quot;:0};participant=umlActor;" vertex="1" parent="1">
          <mxGeometry x="70" y="80" width="20" height="560" as="geometry" />
        </mxCell>
        <mxCell id="RnU1c53OWpj6BuBvelCK-2" value="050System" style="shape=umlLifeline;perimeter=lifelinePerimeter;whiteSpace=wrap;html=1;container=0;dropTarget=0;collapsible=0;recursiveResize=0;outlineConnect=0;portConstraint=eastwest;newEdgeStyle={&quot;edgeStyle&quot;:&quot;elbowEdgeStyle&quot;,&quot;elbow&quot;:&quot;vertical&quot;,&quot;curved&quot;:0,&quot;rounded&quot;:0};" vertex="1" parent="1">
          <mxGeometry x="240" y="80" width="100" height="560" as="geometry" />
        </mxCell>
        <mxCell id="RnU1c53OWpj6BuBvelCK-5" value="" style="html=1;points=[];perimeter=orthogonalPerimeter;outlineConnect=0;targetShapes=umlLifeline;portConstraint=eastwest;newEdgeStyle={&quot;edgeStyle&quot;:&quot;elbowEdgeStyle&quot;,&quot;elbow&quot;:&quot;vertical&quot;,&quot;curved&quot;:0,&quot;rounded&quot;:0};" vertex="1" parent="RnU1c53OWpj6BuBvelCK-2">
          <mxGeometry x="45" y="110" width="10" height="370" as="geometry" />
        </mxCell>
        <mxCell id="RnU1c53OWpj6BuBvelCK-11" value="" style="html=1;points=[];perimeter=orthogonalPerimeter;outlineConnect=0;targetShapes=umlLifeline;portConstraint=eastwest;newEdgeStyle={&quot;edgeStyle&quot;:&quot;elbowEdgeStyle&quot;,&quot;elbow&quot;:&quot;vertical&quot;,&quot;curved&quot;:0,&quot;rounded&quot;:0};" vertex="1" parent="RnU1c53OWpj6BuBvelCK-2">
          <mxGeometry x="50" y="160" width="10" height="40" as="geometry" />
        </mxCell>
        <mxCell id="RnU1c53OWpj6BuBvelCK-12" value="Validate" style="html=1;align=left;spacingLeft=2;endArrow=block;rounded=0;edgeStyle=orthogonalEdgeStyle;curved=0;rounded=0;" edge="1" target="RnU1c53OWpj6BuBvelCK-11" parent="RnU1c53OWpj6BuBvelCK-2">
          <mxGeometry relative="1" as="geometry">
            <mxPoint x="55" y="140" as="sourcePoint" />
            <Array as="points">
              <mxPoint x="85" y="170" />
            </Array>
          </mxGeometry>
        </mxCell>
        <mxCell id="RnU1c53OWpj6BuBvelCK-3" value="Rakuten" style="shape=umlLifeline;perimeter=lifelinePerimeter;whiteSpace=wrap;html=1;container=0;dropTarget=0;collapsible=0;recursiveResize=0;outlineConnect=0;portConstraint=eastwest;newEdgeStyle={&quot;edgeStyle&quot;:&quot;elbowEdgeStyle&quot;,&quot;elbow&quot;:&quot;vertical&quot;,&quot;curved&quot;:0,&quot;rounded&quot;:0};" vertex="1" parent="1">
          <mxGeometry x="480" y="80" width="100" height="560" as="geometry" />
        </mxCell>
        <mxCell id="RnU1c53OWpj6BuBvelCK-6" value="" style="html=1;points=[];perimeter=orthogonalPerimeter;outlineConnect=0;targetShapes=umlLifeline;portConstraint=eastwest;newEdgeStyle={&quot;edgeStyle&quot;:&quot;elbowEdgeStyle&quot;,&quot;elbow&quot;:&quot;vertical&quot;,&quot;curved&quot;:0,&quot;rounded&quot;:0};" vertex="1" parent="RnU1c53OWpj6BuBvelCK-3">
          <mxGeometry x="45" y="320" width="10" height="40" as="geometry" />
        </mxCell>
        <mxCell id="RnU1c53OWpj6BuBvelCK-4" value="Database" style="shape=umlLifeline;perimeter=lifelinePerimeter;whiteSpace=wrap;html=1;container=0;dropTarget=0;collapsible=0;recursiveResize=0;outlineConnect=0;portConstraint=eastwest;newEdgeStyle={&quot;edgeStyle&quot;:&quot;elbowEdgeStyle&quot;,&quot;elbow&quot;:&quot;vertical&quot;,&quot;curved&quot;:0,&quot;rounded&quot;:0};" vertex="1" parent="1">
          <mxGeometry x="720" y="80" width="100" height="560" as="geometry" />
        </mxCell>
        <mxCell id="RnU1c53OWpj6BuBvelCK-7" value="" style="html=1;points=[];perimeter=orthogonalPerimeter;outlineConnect=0;targetShapes=umlLifeline;portConstraint=eastwest;newEdgeStyle={&quot;edgeStyle&quot;:&quot;elbowEdgeStyle&quot;,&quot;elbow&quot;:&quot;vertical&quot;,&quot;curved&quot;:0,&quot;rounded&quot;:0};" vertex="1" parent="RnU1c53OWpj6BuBvelCK-4">
          <mxGeometry x="45" y="230" width="10" height="130" as="geometry" />
        </mxCell>
        <mxCell id="RnU1c53OWpj6BuBvelCK-8" value="Call API&amp;nbsp; Mobile Cancel" style="html=1;verticalAlign=bottom;endArrow=block;edgeStyle=elbowEdgeStyle;elbow=vertical;curved=0;rounded=0;" edge="1" parent="1">
          <mxGeometry width="80" relative="1" as="geometry">
            <mxPoint x="79.5" y="200" as="sourcePoint" />
            <mxPoint x="289.5" y="200" as="targetPoint" />
          </mxGeometry>
        </mxCell>
        <mxCell id="RnU1c53OWpj6BuBvelCK-13" value="Validate fail -&amp;gt; Return" style="html=1;verticalAlign=bottom;endArrow=open;dashed=1;endSize=8;edgeStyle=elbowEdgeStyle;elbow=vertical;curved=0;rounded=0;" edge="1" parent="1" target="RnU1c53OWpj6BuBvelCK-1">
          <mxGeometry x="-0.0021" relative="1" as="geometry">
            <mxPoint x="99.5" y="302" as="targetPoint" />
            <Array as="points">
              <mxPoint x="275.5" y="302" />
            </Array>
            <mxPoint x="280" y="302" as="sourcePoint" />
            <mxPoint as="offset" />
          </mxGeometry>
        </mxCell>
        <mxCell id="RnU1c53OWpj6BuBvelCK-14" value="Get 050 number status" style="html=1;verticalAlign=bottom;endArrow=block;edgeStyle=elbowEdgeStyle;elbow=vertical;curved=0;rounded=0;" edge="1" parent="1" target="RnU1c53OWpj6BuBvelCK-4">
          <mxGeometry x="0.2772" relative="1" as="geometry">
            <mxPoint x="300.5" y="320" as="sourcePoint" />
            <Array as="points">
              <mxPoint x="385.5" y="320" />
            </Array>
            <mxPoint x="720" y="320" as="targetPoint" />
            <mxPoint as="offset" />
          </mxGeometry>
        </mxCell>
        <mxCell id="RnU1c53OWpj6BuBvelCK-15" value="Return status 050 number&amp;nbsp;" style="html=1;verticalAlign=bottom;endArrow=open;dashed=1;endSize=8;edgeStyle=elbowEdgeStyle;elbow=vertical;curved=0;rounded=0;" edge="1" parent="1" source="RnU1c53OWpj6BuBvelCK-4" target="RnU1c53OWpj6BuBvelCK-2">
          <mxGeometry x="-0.3354" y="20" relative="1" as="geometry">
            <mxPoint x="710" y="350" as="sourcePoint" />
            <mxPoint x="540" y="350" as="targetPoint" />
            <Array as="points">
              <mxPoint x="570" y="350" />
              <mxPoint x="660" y="360" />
            </Array>
            <mxPoint x="1" as="offset" />
          </mxGeometry>
        </mxCell>
        <mxCell id="RnU1c53OWpj6BuBvelCK-16" value="" style="group" vertex="1" connectable="0" parent="1">
          <mxGeometry x="-60" y="380" width="860" height="220" as="geometry" />
        </mxCell>
        <mxCell id="RnU1c53OWpj6BuBvelCK-17" value="alt" style="shape=umlFrame;whiteSpace=wrap;html=1;pointerEvents=0;" vertex="1" parent="RnU1c53OWpj6BuBvelCK-16">
          <mxGeometry width="860" height="220" as="geometry" />
        </mxCell>
        <mxCell id="RnU1c53OWpj6BuBvelCK-18" value="[Status = IN_USE]" style="text;html=1;strokeColor=none;fillColor=none;align=center;verticalAlign=middle;whiteSpace=wrap;rounded=0;" vertex="1" parent="RnU1c53OWpj6BuBvelCK-16">
          <mxGeometry x="28.98876404494382" y="41.25" width="108.24404494382023" height="41.25" as="geometry" />
        </mxCell>
        <mxCell id="RnU1c53OWpj6BuBvelCK-19" value="[else]" style="text;html=1;strokeColor=none;fillColor=none;align=center;verticalAlign=middle;whiteSpace=wrap;rounded=0;" vertex="1" parent="RnU1c53OWpj6BuBvelCK-16">
          <mxGeometry x="38.651685393258425" y="123.75" width="80.28921348314607" height="41.25" as="geometry" />
        </mxCell>
        <mxCell id="RnU1c53OWpj6BuBvelCK-20" value="" style="endArrow=none;dashed=1;html=1;rounded=0;entryX=1.002;entryY=0.513;entryDx=0;entryDy=0;entryPerimeter=0;exitX=0.004;exitY=0.5;exitDx=0;exitDy=0;exitPerimeter=0;" edge="1" parent="RnU1c53OWpj6BuBvelCK-16" source="RnU1c53OWpj6BuBvelCK-17" target="RnU1c53OWpj6BuBvelCK-17">
          <mxGeometry width="50" height="50" relative="1" as="geometry">
            <mxPoint x="939.6296296296298" y="852.5" as="sourcePoint" />
            <mxPoint x="1019.2592592592592" y="783.75" as="targetPoint" />
          </mxGeometry>
        </mxCell>
        <mxCell id="RnU1c53OWpj6BuBvelCK-21" value="Return =&amp;gt; cancel fail" style="html=1;verticalAlign=bottom;endArrow=open;dashed=1;endSize=8;edgeStyle=elbowEdgeStyle;elbow=vertical;curved=0;rounded=0;" edge="1" parent="RnU1c53OWpj6BuBvelCK-16" target="RnU1c53OWpj6BuBvelCK-1">
          <mxGeometry x="-0.0499" y="25" relative="1" as="geometry">
            <mxPoint x="338.51063829787233" y="165" as="sourcePoint" />
            <mxPoint x="398.84057971014494" y="165" as="targetPoint" />
            <mxPoint as="offset" />
          </mxGeometry>
        </mxCell>
        <mxCell id="RnU1c53OWpj6BuBvelCK-22" value="Set status 050 and 090" style="html=1;verticalAlign=bottom;endArrow=block;edgeStyle=elbowEdgeStyle;elbow=vertical;curved=0;rounded=0;entryX=0.5;entryY=0.25;entryDx=0;entryDy=0;entryPerimeter=0;" edge="1" parent="RnU1c53OWpj6BuBvelCK-16" target="RnU1c53OWpj6BuBvelCK-6">
          <mxGeometry width="80" relative="1" as="geometry">
            <mxPoint x="347.6595744680851" y="30" as="sourcePoint" />
            <mxPoint x="548.9361702127659" y="30" as="targetPoint" />
          </mxGeometry>
        </mxCell>
        <mxCell id="RnU1c53OWpj6BuBvelCK-23" value="Update database" style="html=1;verticalAlign=bottom;endArrow=block;edgeStyle=elbowEdgeStyle;elbow=vertical;curved=0;rounded=0;entryX=0.5;entryY=0.923;entryDx=0;entryDy=0;entryPerimeter=0;" edge="1" parent="RnU1c53OWpj6BuBvelCK-16" target="RnU1c53OWpj6BuBvelCK-7">
          <mxGeometry width="80" relative="1" as="geometry">
            <mxPoint x="600" y="50" as="sourcePoint" />
            <mxPoint x="768.5106382978723" y="50" as="targetPoint" />
          </mxGeometry>
        </mxCell>
        <mxCell id="RnU1c53OWpj6BuBvelCK-25" value="Return =&amp;gt; Cancel successful" style="html=1;verticalAlign=bottom;endArrow=open;dashed=1;endSize=8;edgeStyle=elbowEdgeStyle;elbow=vertical;curved=0;rounded=0;" edge="1" parent="RnU1c53OWpj6BuBvelCK-16" source="RnU1c53OWpj6BuBvelCK-4">
          <mxGeometry x="0.0181" y="18" relative="1" as="geometry">
            <mxPoint x="140" y="83" as="targetPoint" />
            <Array as="points">
              <mxPoint x="325.7021276595745" y="82.5" />
            </Array>
            <mxPoint x="777.6595744680851" y="83" as="sourcePoint" />
            <mxPoint x="1" as="offset" />
          </mxGeometry>
        </mxCell>
        <mxCell id="RnU1c53OWpj6BuBvelCK-28" value="&lt;b&gt;Mobile Cancel&lt;/b&gt;" style="text;html=1;strokeColor=none;fillColor=none;align=center;verticalAlign=middle;whiteSpace=wrap;rounded=0;" vertex="1" parent="1">
          <mxGeometry x="-110" y="100" width="100" height="30" as="geometry" />
        </mxCell>
      </root>
    </mxGraphModel>
  </diagram>
</mxfile>
